<?xml version="1.0" encoding="UTF-8" standalone="no"?>
<svg
   xml:space="preserve"
   width="900"
   height="600"
   viewBox="0 0 238.125 158.75"
   version="1.1"
   id="svg1047"
   xmlns="http://www.w3.org/2000/svg"
   xmlns:svg="http://www.w3.org/2000/svg"><defs
   id="defs1051">
    
    
    
    
    
    
    
    
    
    
    
    
  </defs>
  <g
   id="g1210"><circle
     cx="119.0625"
     cy="79.375"
     r="32.808334"
     style="fill:#ff0000;fill-opacity:1;stroke:none;stroke-width:0.353277;stroke-dasharray:none;stroke-opacity:1;paint-order:markers fill stroke"
     id="circle1009" /><path
     d="M 0,-1.9875008e-7 H 238.125 V 158.75 H 0 Z"
     style="fill:#ff0000;fill-opacity:1;stroke:none;stroke-width:0.873047;stroke-dasharray:none;stroke-opacity:1;paint-order:markers fill stroke"
     id="path1011" /><circle
     cx="119.0625"
     cy="79.375"
     r="30.1625"
     style="fill:#00ff00;stroke-width:0.635;paint-order:markers fill stroke"
     id="circle1013" /><circle
     cx="119.0625"
     cy="79.375"
     r="30.1625"
     style="fill:#ffff00;fill-opacity:1;stroke:none;stroke-width:0.324787;stroke-dasharray:none;stroke-opacity:1;paint-order:markers fill stroke"
     id="circle1015" /><circle
     cx="119.0625"
     cy="79.375"
     r="25.400002"
     style="fill:#ff0000;stroke:none;stroke-width:0.708708;stroke-dasharray:none;stroke-opacity:1;paint-order:markers fill stroke"
     id="circle1017" /><circle
     cx="119.0625"
     cy="77.984047"
     r="22.52738"
     style="fill:#ffff00;fill-opacity:1;stroke:none;stroke-width:0.628556;stroke-dasharray:none;stroke-opacity:1;paint-order:markers fill stroke"
     id="circle1019" /><g
     style="fill:#ff0000;stroke:#ff0000;stroke-opacity:1"
     id="g1031"
     transform="matrix(0.40000001,0,0,0.40000001,-13.229167,39.950004)">
      <g
   style="fill:#ff0000;stroke:#ff0000;stroke-opacity:1"
   id="g1023">
        <path
   d="m 669.75863,5.6998011 -3.09283,-0.936389 c -19.23257,1.8569712 -35.67898,14.4636009 -41.95897,24.5163789 -7.08927,11.348254 -7.99735,22.703735 -7.59164,34.131754 l 1.49205,3.948084 2.54428,-2.762623 C 620.66299,53.342547 620.82979,42.110613 627.91906,30.762359 634.19905,20.709581 644.46809,10.94454 667.7482,6.1429208 Z"
   style="fill:#ff0000;stroke:#ff0000;stroke-width:0.529167;stroke-dasharray:none;stroke-opacity:1;paint-order:markers fill stroke"
   transform="matrix(1.4285714,0,0,1.4285714,-576.36345,54.414627)"
   id="path1021" />
      </g>
      <path
   d="m 612.31214,60.193088 c -0.0966,-9.88266 2.30578,-20.135871 9.39505,-31.484125 6.27999,-10.052778 26.7484,-24.9175038 44.49576,-25.4150213 l -0.9584,-1.0475332 C 646.47559,1.3217334 625.23856,17.019082 618.95857,27.07186 611.8693,38.420114 608.16786,46.477733 608.24559,57.031144 l 1.73321,5.325349 z"
   style="fill:#ff0000;stroke:#ff0000;stroke-width:0.529167;stroke-dasharray:none;stroke-opacity:1;paint-order:markers fill stroke"
   transform="matrix(1.4285714,0,0,1.4285714,-576.36345,54.414627)"
   id="path1025" />
      <path
   d="m 604.33134,54.836111 c 0.0127,-8.242769 7.77208,-23.962283 12.89348,-30.390864 7.3857,-9.270817 24.12458,-22.4030047 46.68228,-23.6658046 l -1.50503,-1.2661853 c -20.05388,0.2387704 -42.19688,15.0767519 -48.36317,24.0601689 -6.14766,8.956255 -12.86791,20.389808 -13.00883,29.194002 l 1.73321,5.325349 z"
   style="fill:#ff0000;stroke:#ff0000;stroke-width:0.529167;stroke-dasharray:none;stroke-opacity:1;paint-order:markers fill stroke"
   transform="matrix(1.4285714,0,0,1.4285714,-576.36345,54.414627)"
   id="path1027" />
      <path
   d="m 598.09976,46.199353 c 1.87123,-8.133443 9.08399,-19.04261 14.20539,-25.471191 7.3857,-9.270817 25.98312,-21.7470494 48.54082,-23.0098493 l -1.28638,-1.2661852 C 639.50571,-3.3091021 615.1063,11.49295 608.68192,20.293645 c -5.81968,7.97232 -11.66532,16.344744 -12.57153,21.541178 l 0.85861,7.730522 z"
   style="fill:#ff0000;stroke:#ff0000;stroke-width:0.529167;stroke-dasharray:none;stroke-opacity:1;paint-order:markers fill stroke"
   transform="matrix(1.4285714,0,0,1.4285714,-576.36345,54.414627)"
   id="path1029" />
    </g><g
     style="fill:#ff0000;stroke:#ff0000;stroke-opacity:1"
     id="g1035"
     transform="matrix(0.40000001,0,0,0.40000001,-13.229167,39.950004)">
      <path
   d="m 669.75863,5.6998011 -3.09283,-0.936389 c -19.23257,1.8569712 -35.67898,14.4636009 -41.95897,24.5163789 -7.08927,11.348254 -7.99735,22.703735 -7.59164,34.131754 l 1.49205,3.948084 2.54428,-2.762623 C 620.66299,53.342547 620.82979,42.110613 627.91906,30.762359 634.19905,20.709581 644.46809,10.94454 667.7482,6.1429208 Z"
   style="fill:#ff0000;stroke:#ff0000;stroke-width:0.529167;stroke-dasharray:none;stroke-opacity:1;paint-order:markers fill stroke"
   transform="matrix(-1.4285714,0,0,1.4285714,1238.2744,54.414627)"
   id="path1033" />
    </g><path
     d="m 132.18794,96.111905 c 0.0552,-5.647232 -1.31759,-11.506212 -5.3686,-17.990928 -3.58856,-5.744445 -15.2848,-14.238574 -25.42615,-14.522869 l 0.54766,-0.598591 c 10.72512,-0.528385 22.86057,8.441528 26.44913,14.185973 4.05101,6.484715 6.16612,11.089071 6.1217,17.119591 l -0.9904,3.043056 z"
     style="fill:#ff0000;stroke:#ff0000;stroke-width:0.302381;stroke-dasharray:none;stroke-opacity:1;paint-order:markers fill stroke"
     id="path1037" /><path
     d="m 136.7484,93.050777 c -0.007,-4.710156 -4.44119,-13.692734 -7.3677,-17.366209 -4.2204,-5.29761 -13.78548,-12.801717 -26.67559,-13.523317 l 0.86001,-0.723534 c 11.45936,0.13644 24.1125,8.615287 27.6361,13.748667 3.51295,5.117861 7.35309,11.651321 7.43362,16.682289 l -0.99041,3.043056 z"
     style="fill:#ff0000;stroke:#ff0000;stroke-width:0.302381;stroke-dasharray:none;stroke-opacity:1;paint-order:markers fill stroke"
     id="path1039" /><path
     d="m 140.3093,88.115485 c -1.06928,-4.64768 -5.19085,-10.881491 -8.11736,-14.554966 -4.2204,-5.297609 -14.8475,-12.426885 -27.73762,-13.148485 L 105.1894,59.6885 c 11.45936,0.13644 25.40188,8.594756 29.07295,13.623724 3.32553,4.555611 6.6659,9.339853 7.18373,12.309245 l -0.49063,4.41744 z"
     style="fill:#ff0000;stroke:#ff0000;stroke-width:0.302381;stroke-dasharray:none;stroke-opacity:1;paint-order:markers fill stroke"
     id="path1041" /><path
     d="m 119.0625,129.64583 -1.7654,-17.65402 c 0,0 0.34684,-1.41947 1.76541,-1.39598 1.44605,0.024 1.76539,1.52676 1.76539,1.52676 m 48.50543,-32.747588 -17.65401,-1.765404 c 0,0 -1.41948,0.346844 -1.39599,1.765412 0.024,1.446055 1.52676,1.765395 1.52676,1.765395 m 16.90433,6.098688 -17.1605,-4.505364 c 0,0 -1.45626,0.120516 -1.65497,1.525296 -0.20255,1.432 1.23179,1.982496 1.23179,1.982496 m 15.74217,8.668024 -16.24443,-7.134392 c 0,0 -1.45719,-0.108772 -1.87321,1.247624 -0.42407,1.382684 0.9065,2.150784 0.9065,2.150784 m 14.19237,11.023919 -14.92837,-9.587739 c 0,0 -1.42222,-0.335388 -2.04531,0.939228 -0.63515,1.29932 0.55888,2.266112 0.55888,2.266112 m 12.29312,13.108379 -13.24472,-11.805015 c 0,0 -1.35225,-0.553744 -2.16706,0.607708 -0.83059,1.183964 0.1975,2.325637 0.1975,2.325637 m 10.09117,14.87006 -11.23495,-13.7316 c 0,0 -1.24898,-0.75847 -2.23544,0.26122 -1.00558,1.03946 -0.16875,2.3279 -0.16875,2.3279 m 7.64074,16.26559 -8.94853,-15.32008 c 0,0 -1.11494,-0.94451 -2.24878,-0.0917 -1.1558,0.86935 -0.53083,2.27284 -0.53083,2.27284 m 5.00217,17.26061 -6.44177,-16.53132 c 0,0 -0.95347,-1.1073 -2.20676,-0.44235 -1.27757,0.67784 -0.87984,2.16182 -0.87984,2.16182 m 2.24043,17.83062 -3.77639,-17.33551 c 0,0 -0.76851,-1.24282 -2.11039,-0.78212 -1.36788,0.46964 -1.2072,1.99757 -1.2072,1.99757 m -0.57647,17.96157 -1.01803,-17.71284 c 0,0 -0.56462,-1.34774 -1.96205,-1.10263 -1.42451,0.24988 -1.50483,1.78413 -1.50483,1.78413 M 68.791671,79.375002 86.445687,77.609598 c 0,0 1.419473,0.346844 1.395981,1.765412 -0.02396,1.446055 -1.526753,1.765395 -1.526753,1.765395 m -16.904328,-9.629493 17.712837,1.018027 c 0,0 1.34774,0.564628 1.102624,1.962056 -0.249876,1.424505 -1.784125,1.504824 -1.784125,1.504824 M 71.252099,63.840461 88.587608,67.616853 c 0,0 1.242816,0.76851 0.782112,2.110389 -0.469636,1.367877 -1.997564,1.207198 -1.997564,1.207198 M 74.270863,56.552523 90.802184,62.994292 c 0,0 1.107296,0.953467 0.442348,2.206755 -0.67784,1.277569 -2.16182,0.879848 -2.16182,0.879848 M 78.392543,49.82655 93.712624,58.775078 c 0,0 0.944508,1.114948 0.09169,2.248785 -0.869352,1.155802 -2.27284,0.530833 -2.27284,0.530833 M 83.515655,43.828158 97.24726,55.063103 c 0,0 0.758464,1.248974 -0.261228,2.235442 -1.039456,1.005576 -2.3279,0.168746 -2.3279,0.168746 m -5.144084,-18.762244 11.805012,13.24472 c 0,0 0.55374,1.352247 -0.60771,2.167055 -1.183966,0.830589 -2.325638,-0.197495 -2.325638,-0.197495 m -2.145692,-19.335962 9.58774,14.928367 c 0,0 0.33539,1.422223 -0.93923,2.045308 -1.29932,0.63515 -2.26611,-0.558874 -2.26611,-0.558874 m 0.90554,-19.433564 7.13439,16.244427 c 0,0 0.10877,1.457179 -1.24763,1.873199 -1.38268,0.424072 -2.15078,-0.906491 -2.15078,-0.906491 m 3.93447,-19.052647 4.50537,17.160496 c 0,0 -0.12052,1.456254 -1.5253,1.654965 -1.432,0.202551 -1.9825,-1.231787 -1.9825,-1.231787 m 6.86652,-18.202591 1.7654,17.654016 c 0,0 -0.34684,1.419472 -1.76541,1.39598 -1.44605,-0.02396 -1.76539,-1.526752 -1.76539,-1.526752 m -6.09869,82.399503 4.50536,-17.1605 c 0,0 -0.12051,-1.45626 -1.52529,-1.65497 -1.432,-0.20255 -1.9825,1.23179 -1.9825,1.23179 m -8.66802,15.74217 7.13439,-16.24443 c 0,0 0.10877,-1.45719 -1.24763,-1.87321 -1.38268,-0.42407 -2.15078,0.9065 -2.15078,0.9065 m -11.02392,14.19237 9.58774,-14.92837 c 0,0 0.33539,-1.42222 -0.93923,-2.04531 -1.29932,-0.63515 -2.26611,0.55888 -2.26611,0.55888 m -13.108376,12.29312 11.805016,-13.24472 c 0,0 0.55374,-1.35225 -0.60771,-2.16706 -1.183966,-0.83059 -2.325642,0.1975 -2.325642,0.1975 M 83.515651,114.92185 97.247256,103.6869 c 0,0 0.758464,-1.24897 -0.261224,-2.23544 -1.039456,-1.00558 -2.327904,-0.16875 -2.327904,-0.16875 m -16.265589,7.64074 15.320081,-8.948524 c 0,0 0.944508,-1.114949 0.09169,-2.248785 -0.869352,-1.155804 -2.272844,-0.530832 -2.272844,-0.530832 M 74.270859,102.19748 90.80218,95.755713 c 0,0 1.1073,-0.953468 0.442352,-2.20676 -0.67784,-1.277568 -2.161824,-0.879844 -2.161824,-0.879844 m -17.830613,2.240432 17.335509,-3.776392 c 0,0 1.24282,-0.768508 0.782116,-2.110388 -0.46964,-1.367876 -1.997568,-1.207196 -1.997568,-1.207196 M 69.410583,87.239093 87.12342,86.221065 c 0,0 1.34774,-0.564628 1.102628,-1.962056 -0.249876,-1.424508 -1.784129,-1.504824 -1.784129,-1.504824 m 40.484671,-53.031096 -1.01803,17.712836 c 0,0 -0.56462,1.34774 -1.96205,1.102624 -1.42451,-0.249876 -1.50483,-1.784124 -1.50483,-1.784124 m 12.15536,-15.189824 -3.77639,17.335508 c 0,0 -0.76851,1.242816 -2.11039,0.782112 -1.36788,-0.469636 -1.2072,-1.997564 -1.2072,-1.997564 m 14.38192,-13.101292 -6.44177,16.53132 c 0,0 -0.95347,1.107296 -2.20676,0.442348 -1.27757,-0.67784 -0.87984,-2.16182 -0.87984,-2.16182 m 16.25434,-10.690168 -8.94853,15.32008 c 0,0 -1.11494,0.944508 -2.24878,0.09169 -1.1558,-0.869352 -0.53084,-2.27284 -0.53084,-2.27284 m 17.72655,-8.015816 -11.23495,13.731604 c 0,0 -1.24898,0.758464 -2.23544,-0.261228 -1.00558,-1.039456 -0.16875,-2.3279 -0.16875,-2.3279 m 18.76225,-5.144084 -13.24473,11.805012 c 0,0 -1.35224,0.553744 -2.16705,-0.607712 -0.83059,-1.183964 0.19749,-2.325636 0.19749,-2.325636 m 19.33597,-2.145692 -14.92837,9.587744 c 0,0 -1.42222,0.335388 -2.04531,-0.939232 -0.63515,-1.29932 0.55888,-2.266108 0.55888,-2.266108 m 19.43356,0.905536 -16.24443,7.134389 c 0,0 -1.45718,0.108776 -1.8732,-1.247624 -0.42407,-1.382684 0.9065,-2.150785 0.9065,-2.150785 m 19.05264,3.934469 -17.16049,4.505368 c 0,0 -1.45626,-0.12052 -1.65497,-1.5253 -0.20255,-1.431996 1.23179,-1.982496 1.23179,-1.982496"
     style="fill:#ffff00;stroke-width:0.584404;paint-order:markers fill stroke"
     id="path1043" /></g>
</svg>
