<svg width="25" height="24" viewBox="0 0 25 24" fill="none" xmlns="http://www.w3.org/2000/svg">
<path fill-rule="evenodd" clip-rule="evenodd" d="M8.25 7C8.25 5.93913 8.67143 4.92172 9.42157 4.17157C10.1717 3.42143 11.1891 3 12.25 3C13.3109 3 14.3283 3.42143 15.0784 4.17157C15.8286 4.92172 16.25 5.93913 16.25 7C16.25 8.06087 15.8286 9.07828 15.0784 9.82843C14.3283 10.5786 13.3109 11 12.25 11C11.1891 11 10.1717 10.5786 9.42157 9.82843C8.67143 9.07828 8.25 8.06087 8.25 7ZM8.25 13C6.92392 13 5.65215 13.5268 4.71447 14.4645C3.77678 15.4021 3.25 16.6739 3.25 18C3.25 18.7956 3.56607 19.5587 4.12868 20.1213C4.69129 20.6839 5.45435 21 6.25 21H18.25C19.0456 21 19.8087 20.6839 20.3713 20.1213C20.9339 19.5587 21.25 18.7956 21.25 18C21.25 16.6739 20.7232 15.4021 19.7855 14.4645C18.8479 13.5268 17.5761 13 16.25 13H8.25Z" fill="#6065D6"/>
</svg>
