<svg width="18" height="20" viewBox="0 0 18 20" fill="none" xmlns="http://www.w3.org/2000/svg">
<g id="Group">
<g id="Group_2">
<path id="Vector" d="M12.849 0C12.8956 0 12.9421 0 12.9913 0C13.1055 1.41044 12.5671 2.46432 11.9128 3.22751C11.2708 3.98542 10.3917 4.7205 8.96985 4.60897C8.875 3.21872 9.41424 2.24301 10.0676 1.48158C10.6736 0.771967 11.7846 0.140517 12.849 0Z" fill="#3A3A3A"/>
<path id="Vector_2" d="M17.1532 14.6805C17.1532 14.6945 17.1532 14.7068 17.1532 14.72C16.7536 15.9302 16.1836 16.9674 15.488 17.9299C14.8531 18.8038 14.075 19.9797 12.6856 19.9797C11.4851 19.9797 10.6876 19.2078 9.45722 19.1867C8.15568 19.1656 7.43992 19.8322 6.24991 19.9999C6.11379 19.9999 5.97766 19.9999 5.84417 19.9999C4.97033 19.8735 4.2651 19.1814 3.75134 18.5579C2.23639 16.7153 1.0657 14.3353 0.8479 11.2896C0.8479 10.991 0.8479 10.6933 0.8479 10.3947C0.940115 8.21493 1.99926 6.44266 3.40707 5.58374C4.15006 5.12706 5.17144 4.73801 6.30875 4.9119C6.79617 4.98742 7.29413 5.15429 7.73061 5.3194C8.14426 5.47836 8.66154 5.76027 9.15159 5.74534C9.48357 5.73568 9.81378 5.56267 10.1484 5.44059C11.1285 5.08667 12.0893 4.68092 13.3557 4.8715C14.8777 5.10159 15.9579 5.77783 16.6254 6.82118C15.3379 7.64057 14.32 8.87536 14.4939 10.984C14.6485 12.8994 15.7621 14.0201 17.1532 14.6805Z" fill="#3A3A3A"/>
</g>
</g>
</svg>
