<svg width="67" height="89" viewBox="0 0 67 89" fill="none" xmlns="http://www.w3.org/2000/svg">
<g id="Group 1">
<path id="Vector 2" d="M58.0109 65.566C52.234 85.0001 30.3154 85.1965 16.9536 82.2836C15.9563 82.0661 15.3576 83.2502 16.2176 83.8001C26.1348 90.1422 39.4975 89.4353 45.5013 88.1043C59.2432 84.23 65.0436 71.4645 66.2261 65.566C69.8109 43.214 57.7619 33.2797 51.2893 31.1066C38.4437 27.3813 37.9612 34.1756 36.7662 38.7164C35.1109 44.8646 33.3898 44.9903 30.6408 44.9321C30.5825 44.9309 30.5233 44.9242 30.4663 44.912C24.1227 43.5614 19.7216 39.0694 17.8721 35.3942C17.5664 34.7867 16.7529 34.5854 16.2468 35.0398L15.8767 35.3721C15.6094 35.6122 15.497 35.9832 15.6025 36.3267C17.742 43.2932 24.425 47.532 27.5772 48.802C38.3317 51.6332 40.3511 44.4522 41.546 41.3453C44.6283 34.9284 47.1489 35.5071 50.4773 37.2198C50.5204 37.2419 50.563 37.2683 50.602 37.2969C61.5904 45.3512 60.1231 59.4922 58.0109 65.566Z" fill="#6065D6"/>
<ellipse id="Ellipse 6" cx="21.229" cy="10.2447" rx="9.52219" ry="9.49962" fill="#6065D6"/>
<ellipse id="Ellipse 7" cx="52.4095" cy="12.2936" rx="12.3228" ry="12.2936" fill="#6065D6"/>
<path id="Vector 1" d="M5.14245 35.1316C17.8869 15.8087 36.9995 20.0747 48.4714 26.4052C49.4299 26.9341 48.7997 28.1834 47.7435 27.8957C23.5426 21.3035 11.6117 32.449 8.72792 40.3894C2.51426 53.8601 8.54731 67.9306 14.5231 75.9129C15.1813 76.7922 14.0875 78.2012 13.1681 77.6003C-5.26366 65.5546 -0.408551 44.5502 5.14245 35.1316Z" fill="#6065D6"/>
</g>
</svg>
