<svg width="139" height="146" viewBox="0 0 139 146" fill="none" xmlns="http://www.w3.org/2000/svg">
<path d="M54.7962 66.871C54.7962 66.871 25.9992 76.2294 20.4765 84.8679C14.9538 93.5063 54.7962 66.871 54.7962 66.871Z" fill="#6065D6"/>
<path d="M54.1721 57.5236C54.1721 57.5236 27.6344 54.9497 19.584 59.3482C11.5335 63.7467 54.1721 57.5236 54.1721 57.5236Z" fill="#6065D6"/>
<path d="M61.7659 53.1136C61.7659 53.1136 48.4177 22.8721 51.6518 19.8787C54.8859 16.8853 61.7659 53.1136 61.7659 53.1136Z" fill="#6065D6"/>
<path d="M66.8105 59.7638C66.8105 59.7638 73.975 29.1963 81.4806 29.1963C88.9863 29.1963 66.8105 59.7638 66.8105 59.7638Z" fill="#6065D6"/>
<path d="M71.0156 60.0687C71.0156 60.0687 116.72 37.2862 119.392 49.3802C122.064 61.4742 71.0156 60.0687 71.0156 60.0687Z" fill="#6065D6"/>
<path d="M86.6367 61.791C86.6367 61.791 129.783 61.2476 132.207 65.5946C134.631 69.9416 86.6367 61.791 86.6367 61.791Z" fill="#6065D6"/>
<path d="M78.2246 66.3041C78.2246 66.3041 104.285 77.6694 99.1929 81.1664C94.1006 84.6634 78.2246 66.3041 78.2246 66.3041Z" fill="#6065D6"/>
<path d="M121.48 79.9088C121.48 79.9088 143.108 88.4116 138.302 94.0802C133.496 99.7488 121.48 79.9088 121.48 79.9088Z" fill="#6065D6"/>
<path d="M81.2305 73.1065C81.2305 73.1065 126.289 119.589 122.083 122.423C117.878 125.257 81.2305 73.1065 81.2305 73.1065Z" fill="#6065D6"/>
<path d="M72.8184 69.7053C72.8184 69.7053 91.789 99.517 87.9175 102.415C84.0459 105.314 72.8184 69.7053 72.8184 69.7053Z" fill="#6065D6"/>
<path d="M64.792 68.5716C64.792 68.5716 51.3042 97.6045 61.7813 97.1144C72.2583 96.6243 64.792 68.5716 64.792 68.5716Z" fill="#6065D6"/>
<path d="M58.8961 70.9345C58.8961 70.9345 30.2362 101.864 32.8591 105.121C35.482 108.379 58.8961 70.9345 58.8961 70.9345Z" fill="#6065D6"/>
<path d="M50.2947 50.1075C50.2947 50.1075 42.0927 31.0442 18.987 33.7431C-4.11869 36.442 50.2947 50.1075 50.2947 50.1075Z" fill="#6065D6"/>
<path d="M30.7646 48.1646C30.7646 48.1646 -2.27811 45.8972 0.125 51.5658C2.52811 57.2344 30.7646 48.1646 30.7646 48.1646Z" fill="#6065D6"/>
<path d="M39.1755 27.1908C39.1755 27.1908 37.3732 19.2548 34.3693 20.9554C31.3654 22.656 39.1755 27.1908 39.1755 27.1908Z" fill="#6065D6"/>
<path d="M69.6152 32.8061C69.6152 32.8061 77.8591 0.120222 74.1228 0.000326645C70.3864 -0.119568 69.6152 32.8061 69.6152 32.8061Z" fill="#6065D6"/>
<path d="M107.664 37.3943C107.664 37.3943 111.269 28.8914 114.873 31.1589C118.478 33.4263 107.664 37.3943 107.664 37.3943Z" fill="#6065D6"/>
<path d="M73.419 112.787C73.419 112.787 68.6128 146.231 77.6244 145.664C86.6361 145.098 73.419 112.787 73.419 112.787Z" fill="#6065D6"/>
</svg>
