<svg width="25" height="24" viewBox="0 0 25 24" fill="none" xmlns="http://www.w3.org/2000/svg">
<g clip-path="url(#clip0_2534_1555)">
<path fill-rule="evenodd" clip-rule="evenodd" d="M11.55 2.65C11.8962 2.39036 12.3173 2.25 12.75 2.25C13.1827 2.25 13.6038 2.39036 13.95 2.65L20.95 7.9C21.1984 8.08629 21.4 8.32786 21.5389 8.60557C21.6777 8.88328 21.75 9.18951 21.75 9.5V19C21.75 19.5304 21.5393 20.0391 21.1642 20.4142C20.7891 20.7893 20.2804 21 19.75 21H5.75C5.21957 21 4.71086 20.7893 4.33579 20.4142C3.96071 20.0391 3.75 19.5304 3.75 19V9.5C3.75 9.18951 3.82229 8.88328 3.96115 8.60557C4.1 8.32786 4.30161 8.08629 4.55 7.9L11.55 2.65Z" fill="#6065D6"/>
</g>
<defs>
<clipPath id="clip0_2534_1555">
<rect width="24" height="24" fill="white" transform="translate(0.75)"/>
</clipPath>
</defs>
</svg>
