<svg width="20" height="20" viewBox="0 0 20 20" fill="none" xmlns="http://www.w3.org/2000/svg">
<g id="material-symbols:language">
<path id="Vector" d="M9.99984 18.3333C8.86095 18.3333 7.78456 18.1144 6.77067 17.6767C5.75678 17.2389 4.87123 16.6417 4.114 15.885C3.35734 15.1283 2.76012 14.2431 2.32234 13.2292C1.88456 12.2153 1.66595 11.1389 1.6665 10C1.6665 8.84722 1.88539 7.76722 2.32317 6.76C2.76095 5.75278 3.35817 4.87111 4.11484 4.115C4.87151 3.35778 5.7565 2.76055 6.76984 2.32333C7.78317 1.88611 8.85984 1.66722 9.99984 1.66666C11.1526 1.66666 12.2326 1.88555 13.2398 2.32333C14.2471 2.76111 15.1287 3.35833 15.8848 4.115C16.6421 4.87166 17.2393 5.75361 17.6765 6.76083C18.1137 7.76805 18.3326 8.84777 18.3332 10C18.3332 11.1389 18.1143 12.2153 17.6765 13.2292C17.2387 14.2431 16.6415 15.1286 15.8848 15.8858C15.1282 16.6425 14.2462 17.2397 13.239 17.6775C12.2318 18.1153 11.1521 18.3339 9.99984 18.3333ZM9.99984 16.625C10.3609 16.125 10.6734 15.6042 10.9373 15.0625C11.2012 14.5208 11.4165 13.9444 11.5832 13.3333H8.4165C8.58317 13.9444 8.79845 14.5208 9.06234 15.0625C9.32623 15.6042 9.63873 16.125 9.99984 16.625ZM7.83317 16.2917C7.58317 15.8333 7.36428 15.3575 7.17651 14.8642C6.98873 14.3708 6.83262 13.8606 6.70817 13.3333H4.24984C4.65262 14.0278 5.15623 14.6319 5.76067 15.1458C6.36512 15.6597 7.05595 16.0417 7.83317 16.2917ZM12.1665 16.2917C12.9443 16.0417 13.6354 15.6597 14.2398 15.1458C14.8443 14.6319 15.3476 14.0278 15.7498 13.3333H13.2915C13.1665 13.8611 13.0104 14.3717 12.8232 14.865C12.6359 15.3583 12.4171 15.8339 12.1665 16.2917ZM3.5415 11.6667H6.37484C6.33317 11.3889 6.30178 11.1144 6.28067 10.8433C6.25956 10.5722 6.24928 10.2911 6.24984 10C6.24984 9.70833 6.26039 9.42722 6.28151 9.15666C6.30262 8.88611 6.33373 8.61166 6.37484 8.33333H3.5415C3.47206 8.61111 3.41984 8.88555 3.38484 9.15666C3.34984 9.42777 3.33262 9.70889 3.33317 10C3.33317 10.2917 3.35067 10.5728 3.38567 10.8433C3.42067 11.1139 3.47262 11.3883 3.5415 11.6667ZM8.0415 11.6667H11.9582C11.9998 11.3889 12.0312 11.1144 12.0523 10.8433C12.0734 10.5722 12.0837 10.2911 12.0832 10C12.0832 9.70833 12.0726 9.42722 12.0515 9.15666C12.0304 8.88611 11.9993 8.61166 11.9582 8.33333H8.0415C7.99984 8.61111 7.96845 8.88555 7.94734 9.15666C7.92623 9.42777 7.91595 9.70889 7.9165 10C7.9165 10.2917 7.92706 10.5728 7.94817 10.8433C7.96928 11.1139 8.00039 11.3883 8.0415 11.6667ZM13.6248 11.6667H16.4582C16.5276 11.3889 16.5798 11.1144 16.6148 10.8433C16.6498 10.5722 16.6671 10.2911 16.6665 10C16.6665 9.70833 16.649 9.42722 16.614 9.15666C16.579 8.88611 16.5271 8.61166 16.4582 8.33333H13.6248C13.6665 8.61111 13.6979 8.88555 13.719 9.15666C13.7401 9.42777 13.7504 9.70889 13.7498 10C13.7498 10.2917 13.7393 10.5728 13.7182 10.8433C13.6971 11.1139 13.6659 11.3883 13.6248 11.6667ZM13.2915 6.66666H15.7498C15.3471 5.97222 14.8437 5.36805 14.2398 4.85416C13.6359 4.34028 12.9448 3.95833 12.1665 3.70833C12.4165 4.16666 12.6354 4.6425 12.8232 5.13583C13.0109 5.62916 13.1671 6.13944 13.2915 6.66666ZM8.4165 6.66666H11.5832C11.4165 6.05555 11.2012 5.47916 10.9373 4.9375C10.6734 4.39583 10.3609 3.875 9.99984 3.375C9.63873 3.875 9.32623 4.39583 9.06234 4.9375C8.79845 5.47916 8.58317 6.05555 8.4165 6.66666ZM4.24984 6.66666H6.70817C6.83317 6.13889 6.98956 5.62833 7.17734 5.135C7.36512 4.64166 7.58373 4.16611 7.83317 3.70833C7.05539 3.95833 6.36428 4.34028 5.75984 4.85416C5.15539 5.36805 4.65206 5.97222 4.24984 6.66666Z" fill="#3A3A3A"/>
</g>
</svg>
